<svg id="Layer_1" data-name="Layer 1" xmlns="http://www.w3.org/2000/svg" viewBox="0 0 127.51 127.51"><defs><style>.cls-1{fill:#f29696;}.cls-2{fill:#f06969;}.cls-3{fill:#f2f2f2;}</style></defs><title>Chat</title><path class="cls-1" d="M114.52,30.35H39.59a4.84,4.84,0,0,0-4.84,4.83v58A4.84,4.84,0,0,0,39.59,98H67.86L96.25,117a2.47,2.47,0,0,0,2.49.12A2.42,2.42,0,0,0,100,115V98h14.51a4.84,4.84,0,0,0,4.83-4.84v-58A4.83,4.83,0,0,0,114.52,30.35Z"/><path class="cls-2" d="M95.18,15.85H13a4.84,4.84,0,0,0-4.84,4.83v58A4.84,4.84,0,0,0,13,83.52H27.5v21.76a2.42,2.42,0,0,0,2.42,2.42,2.35,2.35,0,0,0,1.4-.46L64.53,83.52H95.18A4.83,4.83,0,0,0,100,78.69v-58A4.83,4.83,0,0,0,95.18,15.85Z"/><rect class="cls-3" x="19.78" y="27.66" width="57.27" height="6.74" rx="1.26"/><rect class="cls-3" x="19.78" y="45.14" width="49.04" height="6.74" rx="1.26"/><rect class="cls-3" x="19.78" y="61.77" width="43.26" height="6.74" rx="1.26"/></svg>